# xmcd CD database file
#
# Track frame offsets:
#	187
#	17825
#	35405
#	54480
#	72345
#	87822
#	105065
#	118795
#	133152
#	149855
#
# Disc length: 2232 seconds
#
# Revision: 6
# Processed by: cddbd v1.5.2PL0 Copyright (c) Steve Scherf et al.
# Submitted via: CDex 1.51
#
DISCID=8b08b60a
DTITLE=Trisha Yearwood - The Song Remembers When
DYEAR=1993
DGENRE=Country
TTITLE0=The Song Remembers When
TTITLE1=Better Your Heart Than Mine
TTITLE2=I Don't Fall In Love So Easy
TTITLE3=Hard Promises To Keep
TTITLE4=Mr. Radio
TTITLE5=The Nightingale
TTITLE6=If I Ain't Got You
TTITLE7=One In A Row
TTITLE8=Here Comes Temptation
TTITLE9=Lying To The Moon
EXTD=YEAR: 1993
EXTT0=
EXTT1=
EXTT2=
EXTT3=
EXTT4=
EXTT5=
EXTT6=
EXTT7=
EXTT8=
EXTT9=
PLAYORDER=
